<?xml version="1.0" encoding="utf-8"?>
<!-- Generator: Adobe Illustrator 25.0.0, SVG Export Plug-In . SVG Version: 6.00 Build 0)  -->
<svg version="1.1" id="Layer_1" xmlns="http://www.w3.org/2000/svg" xmlns:xlink="http://www.w3.org/1999/xlink" x="0px" y="0px"
	 viewBox="0 0 1920 1080" style="enable-background:new 0 0 1920 1080;" xml:space="preserve">
<style type="text/css">
	.st0{fill:#FFFFFF;}
	.st1{fill:#FFFFFF;stroke:#000000;stroke-miterlimit:10;}
</style>
<g>
	<path class="st0" d="M1736.5-0.5c-128.7,30.9-155.1,62.6-157,85c-4,46.8,98,63.9,198,194c39.6,51.5,59.2,95.1,70,124
		c6.2,16.6,19.6,55.7,26,111c6.6,57,22.2,189.3-57,309.6c-36.1,54.9-78.2,86.3-94,97.4c-66.3,46.4-132.5,58-173,64
		c-243.7,35.9-354.9-15.8-548,26c-42.5,9.2-111.5,27.8-194,69c-269.2,0.2-538.3,0.3-807.5,0.5V876
		c77.9-110.7,99.5-204.1,105.5-266.5c15.8-163.1-59.1-271.3,9-403c8.7-16.8,29.2-55.6,71-89c162.7-130.2,385.5,31.4,674-72
		c47.1-16.9,82.4-36,100-46C1218.5-0.5,1477.5-0.5,1736.5-0.5z"/>
</g>
<path class="st1" d="M1462.5,1079.5"/>
</svg>
